<svg width="30" height="38" viewBox="0 0 30 38" fill="none" xmlns="http://www.w3.org/2000/svg">
<path d="M15.9373 7.34249C15.8155 7.34381 15.6946 7.32113 15.5816 7.27573C15.4686 7.23034 15.3656 7.16312 15.2785 7.07792C15.1915 6.99273 15.1221 6.89121 15.0742 6.77919C15.0264 6.66716 15.0011 6.54681 14.9998 6.425C14.9998 2.87505 17.9398 8.48708e-05 21.5597 8.48708e-05C21.6816 -0.00156636 21.8026 0.0208918 21.9158 0.0661682C22.029 0.111445 22.1321 0.178646 22.2192 0.263909C22.3064 0.349172 22.3758 0.450815 22.4235 0.562994C22.4712 0.675173 22.4962 0.795676 22.4972 0.917573C22.4972 4.46753 19.5598 7.34249 15.9373 7.34249Z" fill="black"/>
<path d="M15.9373 7.34249C15.8155 7.34381 15.6946 7.32113 15.5816 7.27573C15.4686 7.23034 15.3656 7.16312 15.2785 7.07792C15.1915 6.99273 15.122 6.89121 15.0742 6.77919C15.0264 6.66716 15.0011 6.54681 14.9998 6.425C14.9998 2.87505 17.9398 8.48708e-05 21.5597 8.48708e-05C21.6816 -0.00156636 21.8026 0.0208918 21.9158 0.0661682C22.029 0.111445 22.1321 0.178646 22.2192 0.263909C22.3064 0.349172 22.3758 0.450815 22.4235 0.562994C22.4712 0.675173 22.4962 0.795676 22.4972 0.917573C22.4972 4.46753 19.5598 7.34249 15.9373 7.34249ZM29.6246 26.6698C29.9871 26.9347 30.1046 27.4197 29.8996 27.8147C26.5997 34.2797 23.9672 37.4996 21.5622 37.4996C20.4422 37.4996 19.3423 37.1446 18.2698 36.4546C17.5 35.9604 16.6086 35.6886 15.6941 35.6692C14.7795 35.6498 13.8774 35.8835 13.0873 36.3446C11.7874 37.1071 10.5499 37.4996 9.37488 37.4996C5.83743 37.4996 0 26.8322 0 20.9798C0 14.7299 3.34746 9.96496 8.43739 9.96496C10.8324 9.96496 12.8998 10.31 14.6373 11.0124C15.3723 11.3074 16.2048 11.2874 16.9223 10.9499C18.3323 10.285 20.1922 9.96496 22.4972 9.96496C25.3147 9.96496 27.7722 11.3399 29.8121 14.0024C29.8859 14.0984 29.9397 14.2083 29.9703 14.3254C30.0008 14.4426 30.0076 14.5647 29.9901 14.6845C29.9726 14.8044 29.9312 14.9195 29.8685 15.023C29.8057 15.1266 29.7228 15.2165 29.6246 15.2874C27.3472 16.9624 26.2497 18.8398 26.2497 20.9798C26.2497 23.1173 27.3472 24.9973 29.6246 26.6698Z" fill="black"/>
<path d="M29.6246 26.6695C29.9871 26.9345 30.1046 27.4195 29.8996 27.8145C26.5997 34.2794 23.9672 37.4994 21.5622 37.4994C20.4422 37.4994 19.3423 37.1444 18.2698 36.4544C17.5 35.9602 16.6086 35.6884 15.6941 35.6689C14.7795 35.6495 13.8774 35.8833 13.0873 36.3444C11.7874 37.1069 10.5499 37.4994 9.37488 37.4994C5.83743 37.4994 0 26.832 0 20.9796C0 14.7297 3.34746 9.96472 8.43739 9.96472C10.8324 9.96472 12.8998 10.3097 14.6373 11.0122C15.3723 11.3072 16.2048 11.2872 16.9223 10.9497C18.3323 10.2847 20.1922 9.96472 22.4972 9.96472C25.3147 9.96472 27.7722 11.3397 29.8121 14.0022C29.8859 14.0982 29.9397 14.208 29.9703 14.3252C30.0008 14.4424 30.0076 14.5645 29.9901 14.6843C29.9726 14.8041 29.9312 14.9192 29.8685 15.0228C29.8057 15.1263 29.7228 15.2162 29.6246 15.2872C27.3472 16.9621 26.2497 18.8396 26.2497 20.9796C26.2497 23.1171 27.3472 24.997 29.6246 26.6695Z" fill="black"/>
</svg>
