<svg width="56" height="56" viewBox="0 0 56 56" fill="none" xmlns="http://www.w3.org/2000/svg">
<circle cx="28" cy="28" r="25.5" stroke="black" stroke-width="5"/>
<path d="M21.1705 41V14.8182H24.3409V38.1875H36.5114V41H21.1705Z" fill="black"/>
<path d="M21.1705 41H19.6705V42.5H21.1705V41ZM21.1705 14.8182V13.3182H19.6705V14.8182H21.1705ZM24.3409 14.8182H25.8409V13.3182H24.3409V14.8182ZM24.3409 38.1875H22.8409V39.6875H24.3409V38.1875ZM36.5114 38.1875H38.0114V36.6875H36.5114V38.1875ZM36.5114 41V42.5H38.0114V41H36.5114ZM22.6705 41V14.8182H19.6705V41H22.6705ZM21.1705 16.3182H24.3409V13.3182H21.1705V16.3182ZM22.8409 14.8182V38.1875H25.8409V14.8182H22.8409ZM24.3409 39.6875H36.5114V36.6875H24.3409V39.6875ZM35.0114 38.1875V41H38.0114V38.1875H35.0114ZM36.5114 39.5H21.1705V42.5H36.5114V39.5Z" fill="black"/>
</svg>
