<svg width="11" height="6" viewBox="0 0 11 6" fill="none" xmlns="http://www.w3.org/2000/svg">
<path d="M0.969496 3.659C0.924733 3.78121 0.834082 3.88115 0.716805 3.93758C0.599527 3.99401 0.464867 4.00249 0.341437 3.96122C0.218006 3.91995 0.115533 3.83217 0.0557906 3.71654C-0.00395172 3.60092 -0.0162545 3.46655 0.0214962 3.342C0.0392783 3.28694 0.0599742 3.23186 0.0834962 3.179C0.123496 3.084 0.182496 2.953 0.263496 2.798C0.428496 2.488 0.685496 2.075 1.0645 1.662C1.8295 0.827 3.0825 0 4.9955 0C6.9085 0 8.1615 0.827 8.9265 1.662C9.33483 2.10998 9.66599 2.62261 9.9065 3.179L9.9525 3.292C9.9555 3.3 9.9655 3.352 9.9755 3.402L9.9955 3.5C9.9955 3.5 10.0795 3.833 9.6535 3.974C9.52804 4.0159 9.3911 4.00638 9.27265 3.94753C9.15419 3.88867 9.06389 3.78529 9.0215 3.66V3.657L9.0155 3.641C8.96526 3.51254 8.90783 3.38701 8.8435 3.265C8.66569 2.92952 8.44592 2.61802 8.1895 2.338C7.5795 1.673 6.5825 1 4.9955 1C3.4085 1 2.4115 1.673 1.8015 2.338C1.47124 2.70007 1.20266 3.11391 1.0065 3.563C0.996005 3.58881 0.986003 3.61481 0.976496 3.641L0.969496 3.659ZM2.9955 4C2.9955 3.46957 3.20621 2.96086 3.58128 2.58579C3.95636 2.21071 4.46506 2 4.9955 2C5.52593 2 6.03464 2.21071 6.40971 2.58579C6.78478 2.96086 6.9955 3.46957 6.9955 4C6.9955 4.53043 6.78478 5.03914 6.40971 5.41421C6.03464 5.78929 5.52593 6 4.9955 6C4.46506 6 3.95636 5.78929 3.58128 5.41421C3.20621 5.03914 2.9955 4.53043 2.9955 4Z" fill="black"/>
</svg>
